<?xml version="1.0" standalone="no"?>
<!DOCTYPE svg PUBLIC "-//W3C//DTD SVG 20010904//EN"
 "http://www.w3.org/TR/2001/REC-SVG-20010904/DTD/svg10.dtd">
<svg version="1.0" xmlns="http://www.w3.org/2000/svg"
 width="235.000000pt" height="215.000000pt" viewBox="0 0 235.000000 215.000000"
 preserveAspectRatio="xMidYMid meet">
<metadata>
Created by potrace 1.16, written by Peter Selinger 2001-2019
</metadata>
<g transform="translate(0.000000,215.000000) scale(0.100000,-0.100000)"
fill="#000000" stroke="none">
<path d="M1045 2116 c-67 -29 -147 -126 -174 -208 -17 -51 -45 -85 -94 -111
-40 -21 -53 -22 -287 -22 l-245 0 -48 -28 c-97 -57 -172 -237 -184 -439 -7
-126 7 -175 66 -241 41 -46 108 -97 127 -97 6 0 21 16 33 36 l21 35 50 -50
c28 -28 63 -54 77 -57 26 -7 31 -3 59 43 11 17 13 17 52 -5 46 -26 126 -52
160 -52 26 0 40 26 23 43 -6 6 -11 23 -11 38 l0 27 32 -15 c17 -9 53 -18 80
-21 48 -5 48 -4 48 25 0 40 6 44 45 27 47 -19 73 -18 80 6 12 36 115 19 115
-19 0 -7 -7 -26 -16 -43 -15 -29 -18 -30 -64 -25 -51 6 -70 -4 -70 -36 0 -12
-5 -17 -13 -14 -8 3 -39 8 -70 12 l-57 7 0 -36 c0 -35 -1 -35 -32 -30 -18 4
-48 15 -67 26 -44 25 -61 11 -61 -48 0 -24 -2 -44 -4 -44 -7 0 -102 54 -125
72 -13 10 -32 18 -42 18 -18 0 -59 -57 -59 -83 0 -33 -21 -26 -69 23 -44 47
-50 51 -70 39 -22 -14 -44 -60 -56 -119 -4 -19 -18 -44 -32 -56 -23 -18 -25
-25 -18 -64 6 -33 18 -54 54 -90 39 -39 62 -52 132 -74 114 -37 249 -56 388
-56 149 0 464 26 561 45 41 8 80 15 86 15 17 0 25 -134 12 -191 -8 -34 -26
-66 -60 -106 -56 -66 -73 -94 -83 -141 l-7 -32 561 0 561 0 0 408 0 407 -63
56 c-100 89 -133 167 -158 364 -31 245 -151 460 -354 635 -184 158 -317 207
-410 150 l-37 -23 -41 41 c-83 80 -172 109 -242 78z"/>
</g>
</svg>
